<svg xmlns="http://www.w3.org/2000/svg" width="94" height="94" viewBox="0 0 94 94">
  <g id="Group_56" data-name="Group 56" transform="translate(-903.813 -2378)">
    <circle id="Ellipse_50" data-name="Ellipse 50" cx="47" cy="47" r="47" transform="translate(903.813 2378)" fill="#19147c"/>
    <path id="Path_657" data-name="Path 657" d="M4.3,10.526,20.068,1.552a1.169,1.169,0,0,1,1.148,0L36.99,10.526a3.1,3.1,0,0,1,1.564,2.687v5.409A22.833,22.833,0,0,1,27.9,38l-5.6,3.547a3.106,3.106,0,0,1-3.31,0h0L13.393,38A22.833,22.833,0,0,1,2.735,18.622V13.213A3.083,3.083,0,0,1,4.3,10.526Zm.758,8.1A20.527,20.527,0,0,0,14.634,36.04l5.6,3.547a.783.783,0,0,0,.829,0l5.6-3.547a20.522,20.522,0,0,0,9.581-17.418V13.213a.773.773,0,0,0-.391-.673l-15.2-8.647L5.442,12.54a.773.773,0,0,0-.391.673v5.409Zm7.611-2.293a1.162,1.162,0,0,0,0,1.641l9.484,9.484a1.157,1.157,0,0,0,1.639,0l4.833-4.833a1.161,1.161,0,1,0-1.641-1.641l-4.013,4.013L14.3,16.329A1.154,1.154,0,0,0,12.664,16.329Z" transform="translate(930.17 2402.794)" fill="#fff" stroke="#fff" stroke-width="0.5"/>
  </g>
</svg>
