<svg xmlns="http://www.w3.org/2000/svg" width="94" height="94" viewBox="0 0 94 94">
  <g id="Group_54" data-name="Group 54" transform="translate(-866.813 -1951)">
    <circle id="Ellipse_48" data-name="Ellipse 48" cx="47" cy="47" r="47" transform="translate(866.813 1951)" fill="rgba(246,112,98,0.88)"/>
    <g id="Layer_2" data-name="Layer 2" transform="translate(892.213 1968.997)">
      <path id="Path_650" data-name="Path 650" d="M39.162,55.427H19.575A11.575,11.575,0,0,1,8,43.852v-18.7A11.575,11.575,0,0,1,19.575,13.58H22.1c-.41-2.208-1.852-7.452-6.232-7.969a2.671,2.671,0,1,1,0-1.781c5.342.49,7.515,6.117,8.058,9.74H34.817c.543-3.624,2.76-9.251,8.013-9.74a2.671,2.671,0,1,1,0,1.781c-4.452.516-5.859,5.761-6.232,8.013h2.564a11.575,11.575,0,0,1,11.575,11.53v18.7A11.575,11.575,0,0,1,39.162,55.427ZM13.342,3.786a.89.89,0,1,0,.89.89A.89.89,0,0,0,13.342,3.786ZM45.395,5.567a.89.89,0,1,0-.89-.89A.89.89,0,0,0,45.395,5.567Zm3.561,19.588a9.794,9.794,0,0,0-9.794-9.794H19.575a9.794,9.794,0,0,0-9.794,9.794v18.7a9.794,9.794,0,0,0,9.794,9.794H39.162a9.794,9.794,0,0,0,9.794-9.794Z" transform="translate(-8 -2.05)" fill="#fff" stroke="#fff" stroke-width="1"/>
      <path id="Path_651" data-name="Path 651" d="M26.355,37.013a.89.89,0,0,1-.89-.89,5.342,5.342,0,1,0-10.684,0,.89.89,0,0,1-1.781,0,7.123,7.123,0,1,1,14.246,0A.89.89,0,0,1,26.355,37.013Z" transform="translate(11.039 -5.005)" fill="#fff" stroke="#fff" stroke-width="1"/>
      <path id="Path_652" data-name="Path 652" d="M48.355,37.013a.89.89,0,0,1-.89-.89,5.342,5.342,0,1,0-10.684,0,.89.89,0,1,1-1.781,0,7.123,7.123,0,1,1,14.246,0A.89.89,0,0,1,48.355,37.013Z" transform="translate(-30.548 -5.005)" fill="#fff" stroke="#fff" stroke-width="1"/>
      <path id="Path_653" data-name="Path 653" d="M38.128,47.445a.89.89,0,0,1-.329,1.22,13.355,13.355,0,0,1-6.678,1.9,13.355,13.355,0,0,1-6.678-1.9.893.893,0,0,1,.89-1.549,10.862,10.862,0,0,0,11.575,0,.89.89,0,0,1,1.22.329Z" transform="translate(-9.753 -6.978)" fill="#fff" stroke="#fff" stroke-width="1"/>
    </g>
  </g>
</svg>
