<svg id="Group_11" data-name="Group 11" xmlns="http://www.w3.org/2000/svg" width="94" height="94" viewBox="0 0 94 94">
  <circle id="Ellipse_48" data-name="Ellipse 48" cx="47" cy="47" r="47" transform="translate(0)" fill="#51cda2"/>
  <g id="Layer_2" data-name="Layer 2" transform="translate(24.374 20)">
    <g id="Layer_10" data-name="Layer 10" transform="translate(0)">
      <path id="Path_649" data-name="Path 649" d="M-.011,27.486a1.293,1.293,0,0,1,.595-1.1l8.008-5.223L.584,15.942a1.293,1.293,0,0,1,0-2.191L21.319.216a1.293,1.293,0,0,1,1.409,0L43.981,13.654a1.344,1.344,0,0,1,.608,1.105,1.293,1.293,0,0,1-.6,1.105L35.8,21.113l8.183,5.171a1.293,1.293,0,0,1,0,2.211l-8.086,5.171,8.086,5.119a1.331,1.331,0,0,1,.006,2.23L22.748,54.633a1.319,1.319,0,0,1-1.428-.006L.584,41.092a1.293,1.293,0,0,1,0-2.191L8.489,33.73.584,28.559A1.293,1.293,0,0,1-.011,27.486Zm42.479-12.72L22.05,1.838,2.1,14.869,22.05,27.861ZM2.1,39.974,22.05,53,42.468,39.916l-8.189-5.171L22.748,42.12a1.293,1.293,0,0,1-.7.213,1.364,1.364,0,0,1-.724-.213L10.085,34.783Zm19.953.5,20.419-13.07-8.293-5.255-11.428,7.33a1.293,1.293,0,0,1-1.422,0L10.189,22.212,2.1,27.486Z" transform="translate(0.023 -0.007)" fill="#fff" stroke="#fff" stroke-width="1"/>
    </g>
  </g>
</svg>
