<svg xmlns="http://www.w3.org/2000/svg" width="34.357" height="34.357" viewBox="0 0 34.357 34.357"><defs><style>.a{fill:#007ab9;}.b{fill:#f1f2f2;}</style></defs><ellipse class="a" cx="17.178" cy="17.178" rx="17.178" ry="17.178" transform="translate(0 0)"/><g transform="translate(8.289 7.34)"><path class="b" d="M46.222,35.19v7.082H42.115V35.664c0-1.659-.593-2.792-2.08-2.792a2.246,2.246,0,0,0-2.106,1.5,2.81,2.81,0,0,0-.136,1v6.9H33.687s.055-11.191,0-12.35h4.107v1.75c-.008.014-.02.027-.027.04h.027v-.04a4.077,4.077,0,0,1,3.7-2.04c2.7,0,4.727,1.765,4.727,5.558ZM29.392,23.969a2.14,2.14,0,1,0-.054,4.268h.027a2.141,2.141,0,1,0,.027-4.268Zm-2.08,18.3h4.1V29.922h-4.1Z" transform="translate(-27.068 -23.969)"/></g></svg>