<svg xmlns="http://www.w3.org/2000/svg" width="261" height="82" viewBox="0 0 261 82">
  <g id="Group_26" data-name="Group 26" transform="translate(-6 -1)">
    <g id="Group_62" data-name="Group 62" transform="translate(9 1)">
      <rect id="Rectangle_56" data-name="Rectangle 56" width="261" height="82" rx="5" transform="translate(-3)"/>
      <g id="Group_61" data-name="Group 61" transform="translate(-3)">
        <g id="playstore" transform="translate(23 18)">
          <g id="Group_21" data-name="Group 21" transform="translate(0 0.001)">
            <path id="Path_666" data-name="Path 666" d="M78.007,15.79C72.663,12.8,64.086,8,50.783.553A3.208,3.208,0,0,0,47.962.184L70.787,23.01Z" transform="translate(-45.769 -0.012)" fill="#32bbff"/>
            <path id="Path_667" data-name="Path 667" d="M25.742,1.93a3.28,3.28,0,0,0-.485.207,3.21,3.21,0,0,0-1.708,2.854V44.52a3.209,3.209,0,0,0,1.708,2.854,3.32,3.32,0,0,0,.485.208L48.568,24.755Z" transform="translate(-23.549 -1.758)" fill="#32bbff"/>
            <path id="Path_668" data-name="Path 668" d="M70.782,255.98,47.956,278.806a3.174,3.174,0,0,0,2.821-.369c12.9-7.225,21.382-11.967,26.788-14.982l.444-.249Z" transform="translate(-45.763 -232.982)" fill="#32bbff"/>
          </g>
          <path id="Path_669" data-name="Path 669" d="M23.549,255.98v19.764a3.209,3.209,0,0,0,1.708,2.854,3.328,3.328,0,0,0,.485.208L48.568,255.98Z" transform="translate(-23.549 -232.981)" fill="#2c9fd9"/>
          <path id="Path_670" data-name="Path 670" d="M45.867.542A3.218,3.218,0,0,0,42.561.381L65.525,23.345l7.566-7.566C67.748,12.79,59.171,7.991,45.867.542Z" transform="translate(-40.853 0)" fill="#29cc5e"/>
          <path id="Path_671" data-name="Path 671" d="M65.525,252.126,42.561,275.09a3.2,3.2,0,0,0,3.306-.161c12.9-7.225,21.382-11.967,26.788-14.982l.444-.249Z" transform="translate(-40.853 -229.473)" fill="#d93f21"/>
          <path id="Path_672" data-name="Path 672" d="M311.746,180.325a3.2,3.2,0,0,0-1.648-2.813s-2.048-1.143-8.327-4.655l-7.468,7.468,7.476,7.476c6.21-3.487,8.32-4.662,8.32-4.662A3.2,3.2,0,0,0,311.746,180.325Z" transform="translate(-269.977 -157.326)" fill="#ffd500"/>
          <path id="Path_673" data-name="Path 673" d="M310.1,258.793a3.2,3.2,0,0,0,1.648-2.813H294.3l7.476,7.476C307.988,259.969,310.1,258.793,310.1,258.793Z" transform="translate(-269.977 -232.981)" fill="#fa0"/>
        </g>
      </g>
    </g>
    <g id="Group_60" data-name="Group 60">
      <g id="Group_59" data-name="Group 59">
        <g id="Group_22" data-name="Group 22" transform="translate(75.434 15)">
          <text id="Get_the_app_on" data-name="Get the app on" transform="translate(0 20)" fill="#fff" font-size="20" font-family="Muli-Regular, Muli"><tspan x="0" y="0">Get the app on</tspan></text>
          <text id="Google_Playstore" data-name="Google Playstore" transform="translate(0 48)" fill="#fff" font-size="20" font-family="Muli-Bold, Muli" font-weight="700"><tspan x="0" y="0">Google Playstore</tspan></text>
        </g>
      </g>
    </g>
  </g>
</svg>
