<svg xmlns="http://www.w3.org/2000/svg" width="34.357" height="34.357" viewBox="0 0 34.357 34.357"><defs><style>.a{fill:#55acee;}.b{fill:#f1f2f2;}</style></defs><ellipse class="a" cx="17.178" cy="17.178" rx="17.178" ry="17.178" transform="translate(0 0)"/><g transform="translate(7.687 10.42)"><path class="b" d="M45.117,35.954a8.192,8.192,0,0,1-2.359.646,4.117,4.117,0,0,0,1.806-2.271,8.22,8.22,0,0,1-2.607,1,4.11,4.11,0,0,0-7,3.746A11.656,11.656,0,0,1,26.5,34.779a4.111,4.111,0,0,0,1.271,5.482,4.077,4.077,0,0,1-1.86-.514c0,.017,0,.035,0,.052A4.109,4.109,0,0,0,29.2,43.825a4.122,4.122,0,0,1-1.854.071,4.11,4.11,0,0,0,3.836,2.852,8.289,8.289,0,0,1-6.079,1.7A11.677,11.677,0,0,0,43.08,38.61c0-.178,0-.355-.012-.531a8.327,8.327,0,0,0,2.049-2.125Z" transform="translate(-25.103 -34.028)"/></g></svg>